<svg xmlns="http://www.w3.org/2000/svg" viewBox="0 0 194.55 204.79"><defs><style>.cls-1{fill:none;stroke:#FF0000;stroke-miterlimit:10;stroke-width:6px;}.cls-2{fill:#FF0000;}.cls-3{fill:#FF0000;}</style></defs><title>Heart Rate</title><g id="Layer_2" data-name="Layer 2"><g id="Layer_1-2" data-name="Layer 1"><path class="cls-1" d="M115.91,3.29h17a8.13,8.13,0,0,1,7.64,5.33l9.05,24.67h-101l9-24.67a8.13,8.13,0,0,1,7.64-5.33h17"/><path class="cls-1" d="M57.61,196.46a8.13,8.13,0,0,0,7.64,5.33h67.64a8.13,8.13,0,0,0,7.64-5.33l9-24.67h-101Z"/><rect class="cls-1" x="26.81" y="33.29" width="144.5" height="138.5" rx="26.56" ry="26.56"/><rect class="cls-1" x="42.44" y="48.27" width="113.25" height="108.55" rx="17.01" ry="17.01"/><path class="cls-1" d="M171.31,84.54h8.63a5.75,5.75,0,0,1,5.75,5.75v24.5a5.75,5.75,0,0,1-5.75,5.75h-8.62a0,0,0,0,1,0,0v-36A0,0,0,0,1,171.31,84.54Z"/><path class="cls-1" d="M126.49,81.91a16.63,16.63,0,0,0-23.51,0h0a5.54,5.54,0,0,1-7.83,0h0a16.62,16.62,0,0,0-23.51,23.51l3.92,3.92,19.59,19.59a5.54,5.54,0,0,0,7.83,0l19.59-19.59,3.92-3.92A16.63,16.63,0,0,0,126.49,81.91Z"/><path class="cls-2" d="M93.44,106.29c4.75,0,10.63,1,15.25,0,2-.45,3.7-2.32,5.29-3.64l6.48-5.35h-3.54c4.27,4.27,8.41,9.76,13.29,13.29,1.92,1.38,3.77,1,6.13,1h9.85c3.22,0,3.22-5,0-5h-8.44c-1.11,0-3.68-.46-4.71,0-1.58.71.87-.36.95.68,0-.24-.69-.64-.84-.84-3.4-4.65-8.61-8.61-12.7-12.7a2.57,2.57,0,0,0-3.54,0l-5.37,4.43c-1.1.9-2.3,1.76-3.32,2.74-1.86,1.8-.33.13.14.34-1.76-.8-5.89,0-7.8,0H93.44c-3.22,0-3.22,5,0,5Z"/><path class="cls-3" d="M188.63,192.61l-2.56,0,0-2.56a3.15,3.15,0,0,0-6.3-.12l0,2.56-2.56,0a3.15,3.15,0,1,0-.12,6.3l2.56,0,0,2.56a3.15,3.15,0,0,0,6.3.12l0-2.56,2.56,0a3.15,3.15,0,0,0,.12-6.3Z"/><path class="cls-3" d="M191.46,16.5l-2.56,0,0-2.56a3.15,3.15,0,0,0-6.3-.12l0,2.56-2.56,0a3.15,3.15,0,1,0-.12,6.3l2.56,0,0,2.56a3.15,3.15,0,0,0,6.3.12l0-2.56,2.56,0a3.15,3.15,0,0,0,.12-6.3Z"/><path class="cls-3" d="M9.92,23.43l-1.73,0,0-1.73a2.14,2.14,0,0,0-4.27-.08l0,1.73-1.73,0a2.14,2.14,0,1,0-.08,4.27l1.73,0,0,1.73a2.14,2.14,0,0,0,4.27.08l0-1.73,1.73,0a2.14,2.14,0,0,0,.08-4.27Z"/><circle class="cls-2" cx="99.06" cy="3.29" r="3.29"/><path class="cls-1" d="M65.77,59.54H59.06a5.62,5.62,0,0,0-5.62,5.63v6.63"/><line class="cls-1" x1="55.94" y1="19.54" x2="113.44" y2="19.54"/><line class="cls-1" x1="118.44" y1="19.54" x2="122.81" y2="19.54"/></g></g></svg>
